<?xml version="1.0" encoding="UTF-8" standalone="no"?>
<!-- Created with Inkscape (http://www.inkscape.org/) -->

<svg
   width="297mm"
   height="210mm"
   viewBox="0 0 1122.5197 793.70081"
   version="1.1"
   id="svg1"
   xml:space="preserve"
   inkscape:version="1.4.3 (0d15f75, 2025-12-25)"
   sodipodi:docname="kono.svg"
   xmlns:inkscape="http://www.inkscape.org/namespaces/inkscape"
   xmlns:sodipodi="http://sodipodi.sourceforge.net/DTD/sodipodi-0.dtd"
   xmlns="http://www.w3.org/2000/svg"
   xmlns:svg="http://www.w3.org/2000/svg"><sodipodi:namedview
     id="namedview1"
     pagecolor="#ffffff"
     bordercolor="#000000"
     borderopacity="0.25"
     inkscape:showpageshadow="2"
     inkscape:pageopacity="0.0"
     inkscape:pagecheckerboard="0"
     inkscape:deskcolor="#d1d1d1"
     inkscape:document-units="mm"
     inkscape:zoom="0.24"
     inkscape:cx="562.5"
     inkscape:cy="452.08333"
     inkscape:window-width="2560"
     inkscape:window-height="1377"
     inkscape:window-x="-8"
     inkscape:window-y="-8"
     inkscape:window-maximized="1"
     inkscape:current-layer="layer1" /><defs
     id="defs1" /><g
     inkscape:label="Слой 1"
     inkscape:groupmode="layer"
     id="layer1"><path
       style="opacity:0;fill:#999999;stroke-width:4.16667"
       d=""
       id="path22" /><path
       style="opacity:0;fill:#999999;stroke-width:4.16667"
       d=""
       id="path28" /><path
       style="opacity:0;fill:#999999"
       d="m -1025,8.3333335 c 37.49998,6.9444445 79.40707,1.8772025 112.49998,20.8333345 112.35932,64.361163 232.51493,126.585262 316.66668,225.000012 180.33691,210.90249 244.75808,618.87109 287.5,862.50002 17.09551,97.4444 12.5,222.0269 12.5,325 0,5.845 3.43069,73.0412 0,83.3333 -0.87841,2.6352 -5.55556,0 -8.33334,0 -22.22222,0 -44.50516,1.6416 -66.66666,0 -46.11666,-3.416 -142.92227,-37.5744 -166.66667,-45.8333 -24.11717,-8.3886 -47.09446,-19.7607 -70.83333,-29.1667 -89.62982,-35.5137 -182.36742,-75.219 -275.00001,-104.1667 -147.59885,-46.1246 -40.02033,-2.107 -229.16665,-79.1666 -60.6299,-24.7011 -125.945,-45.7045 -166.6667,-100 -82.214,-109.6187 -125.1929,-272.95571 -137.5,-408.33335 -4.1495,-45.6451 0,-91.66666 0,-137.50001 0,-36.11111 -3.7413,-72.41655 0,-108.33333 8.4251,-80.88059 50,-155.76315 50,-237.5"
       id="path40" /><g
       id="g86"
       transform="translate(-4.1666668)"><path
         style="fill:#6c6c6c;fill-opacity:1"
         d="m 461.44946,399.25026 c 0,-88.17015 0.0881,-124.23976 0.19572,-80.15468 0.10764,44.08507 0.10764,116.22429 0,160.30936 -0.10765,44.08508 -0.19572,8.01547 -0.19572,-80.15468 z"
         id="path87" /><path
         style="fill:#595959;fill-opacity:1"
         d="m 497.95837,771.45967 c -114.57284,-1.6011 -213.03253,-6.37394 -266.42188,-12.91483 -45.69408,-5.59812 -64.24982,-11.48989 -85.57554,-27.17172 l -8.12368,-5.97374 -9.46058,-10.46837 -9.46058,-10.46837 -5.39864,-8.98907 C 89.471186,655.43506 77.173336,555.20128 77.173336,399.25026 c 0,-155.8996 12.297679,-256.149 36.337964,-296.22331 l 5.39247,-8.989064 9.46675,-10.448343 9.46675,-10.448343 8.12368,-5.993767 c 17.46219,-12.883846 32.49574,-18.788025 59.62476,-23.416631 125.69603,-21.44558 542.11833,-22.710262 691.62919,-2.10049 36.04961,4.969367 53.48671,11.041096 73.11608,25.459562 l 8.16517,5.997615 9.41821,10.475199 9.41821,10.475198 4.76313,7.749464 c 12.1724,19.80418 18.2405,39.09934 23.7527,75.52813 19.5131,128.9562 17.0358,368.66875 -4.8649,470.747 -4.1534,19.35852 -9.1482,32.39335 -18.1675,47.41109 l -5.39869,8.98907 -9.46058,10.46837 -9.46058,10.46837 -8.16517,6.00444 c -22.8817,16.82655 -45.05264,23.177 -100.58613,28.81103 -81.03021,8.22073 -241.3032,13.06825 -371.78648,11.24482 z m 89.87951,-292.26292 c 68.51153,-43.74156 124.56265,-79.71748 124.55805,-79.94649 -0.0108,-0.53741 -248.87596,-159.38913 -250.26596,-159.74584 l -1.0492,-0.26926 v 160.0151 160.0151 l 1.09535,-0.26925 c 0.60245,-0.1481 57.15024,-36.05781 125.66176,-79.79936 z"
         id="path86" /></g></g></svg>
