<?xml version="1.0" encoding="UTF-8" standalone="no"?>
<!-- Created with Inkscape (http://www.inkscape.org/) -->

<svg
   width="297mm"
   height="210mm"
   viewBox="0 0 1122.5197 793.70081"
   version="1.1"
   id="svg1"
   xml:space="preserve"
   inkscape:version="1.4.3 (0d15f75, 2025-12-25)"
   sodipodi:docname="laptop.svg"
   xmlns:inkscape="http://www.inkscape.org/namespaces/inkscape"
   xmlns:sodipodi="http://sodipodi.sourceforge.net/DTD/sodipodi-0.dtd"
   xmlns="http://www.w3.org/2000/svg"
   xmlns:svg="http://www.w3.org/2000/svg"><sodipodi:namedview
     id="namedview1"
     pagecolor="#ffffff"
     bordercolor="#000000"
     borderopacity="0.25"
     inkscape:showpageshadow="2"
     inkscape:pageopacity="0.0"
     inkscape:pagecheckerboard="0"
     inkscape:deskcolor="#d1d1d1"
     inkscape:document-units="mm"
     inkscape:zoom="0.24"
     inkscape:cx="562.5"
     inkscape:cy="452.08333"
     inkscape:window-width="2560"
     inkscape:window-height="1377"
     inkscape:window-x="-8"
     inkscape:window-y="-8"
     inkscape:window-maximized="1"
     inkscape:current-layer="layer1" /><defs
     id="defs1" /><g
     inkscape:label="Слой 1"
     inkscape:groupmode="layer"
     id="layer1"><path
       style="opacity:0;fill:#999999;stroke-width:4.16667"
       d=""
       id="path22" /><path
       style="opacity:0;fill:#999999;stroke-width:4.16667"
       d=""
       id="path28" /><path
       style="opacity:0;fill:#999999"
       d="m -1025,8.3333335 c 37.49998,6.9444445 79.40707,1.8772025 112.49998,20.8333345 112.35932,64.361163 232.51493,126.585262 316.66668,225.000012 180.33691,210.90249 244.75808,618.87109 287.5,862.50002 17.09551,97.4444 12.5,222.0269 12.5,325 0,5.845 3.43069,73.0412 0,83.3333 -0.87841,2.6352 -5.55556,0 -8.33334,0 -22.22222,0 -44.50516,1.6416 -66.66666,0 -46.11666,-3.416 -142.92227,-37.5744 -166.66667,-45.8333 -24.11717,-8.3886 -47.09446,-19.7607 -70.83333,-29.1667 -89.62982,-35.5137 -182.36742,-75.219 -275.00001,-104.1667 -147.59885,-46.1246 -40.02033,-2.107 -229.16665,-79.1666 -60.6299,-24.7011 -125.945,-45.7045 -166.6667,-100 -82.214,-109.6187 -125.1929,-272.95571 -137.5,-408.33335 -4.1495,-45.6451 0,-91.66666 0,-137.50001 0,-36.11111 -3.7413,-72.41655 0,-108.33333 8.4251,-80.88059 50,-155.76315 50,-237.5"
       id="path40" /><g
       id="g87"
       transform="matrix(1.6983071,0,0,1.58687,-366.11254,-161.19026)"><path
         style="fill:#c2c2c2;fill-opacity:1"
         d="m 499.99206,577.37816 c -2.74563,-1.44199 -5.76169,-3.29558 -6.70236,-4.11908 -0.94068,-0.8235 -3.86568,-2.50344 -6.5,-3.7332 -2.63433,-1.22976 -11.08968,-6.0508 -18.78968,-10.71343 -7.7,-4.66262 -17.15,-10.18049 -21,-12.26192 -3.85,-2.08143 -14.94218,-8.25919 -24.64929,-13.72836 l -17.64929,-9.94394 -0.48957,-1.87212 -0.48957,-1.87213 2.54843,0.96891 c 4.82491,1.83443 35.78542,18.70989 63.22929,34.46402 15.125,8.68249 29.525,16.90791 32,18.27871 5.75003,3.1847 5.47004,2.88305 4.15117,4.47219 -0.6236,0.7514 -0.83773,1.66227 -0.47583,2.02416 1.1916,1.1916 -0.1251,0.69274 -5.1833,-1.96381 z"
         id="path91" /><path
         style="fill:#9e9e9e;fill-opacity:1"
         d="m 515.80402,376.72241 c -1.14494,-0.51089 -2.83574,-2.79494 -3.75733,-5.07566 -4.17774,-10.33903 -10.92306,-28.91275 -17.84837,-49.14678 -9.7346,-28.44206 -11.8929,-34.41847 -15.70944,-43.5 -1.73354,-4.125 -3.49779,-8.85 -3.92056,-10.5 -0.57041,-2.2262 -12.86132,-36.22193 -17.78191,-49.18341 l -0.44926,-1.1834 6.83143,-2.05263 c 3.75729,-1.12895 8.18686,-2.88719 9.8435,-3.9072 4.45509,-2.74307 13.43579,-5.49938 17.42908,-5.34926 l 3.49941,0.13155 7.18528,-3.55031 7.18528,-3.55032 5.69892,-0.31669 5.69891,-0.3167 2.64553,-1.91777 c 3.04434,-2.20687 17.57784,-6.73645 20.84413,-6.49637 1.20924,0.0889 4.42459,-0.95645 7.14523,-2.32295 2.72064,-1.3665 5.57877,-2.48454 6.35139,-2.48454 0.77263,0 1.97144,-0.5625 2.66402,-1.25 l 1.25925,-1.25 -0.66624,1.75 c -0.36643,0.9625 -0.3635,1.75 0.006,1.75 1.08461,0 4.88415,-2.20005 6.37598,-3.69188 0.75681,-0.75681 2.20761,-1.11207 3.22401,-0.78948 1.0164,0.32259 4.10797,-0.0846 6.87016,-0.90489 l 5.02216,-1.49142 1.77447,2.25039 1.77447,2.25039 -0.48362,10.43845 -0.48361,10.43844 -0.51639,-11 c -0.28401,-6.05 -0.80168,-10.1 -1.15038,-9 l -0.634,2 -0.116,-2.25 c -0.0638,-1.2375 -0.566,-2.25 -1.116,-2.25 h -1 v 82.875 c 0,45.58125 -0.26615,84.20572 -0.59144,85.83217 l -0.59143,2.95718 -3.4658,1.25324 c -1.93982,0.70145 -3.844,2.24801 -4.32477,3.51254 l -0.85898,2.25929 -5.83379,1.67589 c -3.20859,0.92174 -14.85951,4.51317 -25.89093,7.98096 l -20.05714,6.30506 z"
         id="path90" /><path
         style="fill:#7a7a7a;fill-opacity:1"
         d="m 570.50002,359.46089 c 0,-0.92125 1.67826,-2.32599 3.92484,-3.28519 l 3.92485,-1.67573 0.57515,-2.875 c 0.31634,-1.58125 0.57516,-40.16875 0.57516,-85.75 v -82.875 h 1 c 0.55,0 1.03162,1.0125 1.07028,2.25 l 0.0703,2.25 0.85943,-2 c 0.49231,-1.14567 0.99228,31.53251 1.17045,76.5 l 0.31102,78.5 0.51853,-77.5 0.51852,-77.5 0.24074,80.28983 0.24074,80.28984 -1.99077,3.90223 c -1.90215,3.72851 -5.90918,7.42589 -10.75923,9.9278 l -2.25,1.16066 z"
         id="path89" /><path
         style="fill:#575757;fill-opacity:1"
         d="m 613.96869,528.90128 c -0.81059,-2.55395 -0.0681,-3.30838 4.78133,-4.85806 5.88135,-1.87946 4.62242,-3.63298 -6.65852,-9.27443 -3.79969,-1.90017 -6.4498,-3.73836 -5.88914,-4.08486 0.56066,-0.34651 12.44449,-4.54276 26.40852,-9.32499 l 25.38914,-8.69498 4.1126,-0.0596 4.11261,-0.0596 5.70086,4.39818 5.70087,4.39819 4.93653,-1.57864 4.93653,-1.57864 v 1.07932 c 0,0.59363 -0.7875,1.96206 -1.75,3.04097 l -1.75,1.96164 2.5,-0.75959 c 1.375,-0.41777 3.625,-1.32436 5,-2.01465 1.375,-0.69029 4.525,-1.57959 7,-1.97624 l 4.5,-0.72116 -1.08037,1.13328 c -0.91597,0.96084 -15.82222,6.41954 -38.41963,14.06936 -10.61497,3.59344 -21.5395,7.73223 -25.63541,9.71205 l -4.1354,1.99891 -1.6146,-0.90357 -1.61459,-0.90357 v 0.97784 c 0,0.95171 -7.78693,4.19068 -13.18199,5.48304 l -2.68198,0.64246 z M 451.00002,504.43121 c -18.52347,-10.1737 -46.71599,-26.35407 -54.55269,-31.3091 l -6.27799,-3.96948 3.91534,-0.67753 c 6.54275,-1.13217 19.23226,-4.43762 24.72639,-6.44088 5.15953,-1.88126 13.22349,-4.43015 57.18895,-18.07652 12.65,-3.92642 29.075,-9.0909 36.5,-11.47664 7.425,-2.38573 19.8,-6.35507 27.5,-8.82076 39.74004,-12.7255 78.56773,-25.36013 91.40242,-29.74258 17.29956,-5.90699 16.58646,-5.8778 25.47447,-1.04304 3.91771,2.1311 10.72311,5.78041 15.12311,8.10959 15.78724,8.35711 31.5,17.40625 31.5,18.14119 0,0.41179 -10.6875,4.19634 -23.75,8.41011 -13.0625,4.21377 -31.625,10.35754 -41.25,13.65281 -9.625,3.29528 -35.31524,11.96064 -57.08941,19.25636 l -39.5894,13.26495 -1.87718,-2.79303 c -3.18833,-4.74386 -8.6963,-6.11912 -15.29479,-3.81887 -4.0424,1.40919 -3.96978,2.20368 0.34402,3.76357 l 3.49325,1.26318 4.48513,-0.67259 4.48514,-0.67259 -1.47147,2.94963 -1.47147,2.94962 -5.51973,1.23526 c -5.91525,1.32378 -8.28345,2.10435 -38.99409,12.85265 -26.79353,9.37737 -29.77084,10.54597 -30.2077,11.85654 -0.46999,1.40996 2.9194,2.34556 8.56139,2.36325 l 4.35369,0.0137 93.64631,-31.07373 c 51.50547,-17.09055 105.57131,-35.09682 120.14631,-40.01394 25.98887,-8.76777 30.09953,-9.76869 32.88189,-8.00649 l 1.38189,0.87521 -2.38189,1.53744 c -1.31004,0.84559 -14.98189,5.80534 -30.38189,11.02168 -15.4,5.21634 -40.6,13.82371 -56,19.12748 -15.4,5.30378 -47.8,16.12581 -72,24.04897 -24.2,7.92315 -53.675,17.59115 -65.5,21.48443 -11.825,3.89329 -23.3,7.31287 -25.5,7.59908 l -4,0.52037 z m 128.5,6.82758 c -0.825,-0.32081 -2.09588,-1.29778 -2.82416,-2.17105 l -1.32416,-1.58777 0.75121,1.44098 0.75121,1.44098 -3.92705,-2.34437 c -2.15988,-1.2894 -4.48761,-3.03369 -5.17273,-3.8762 -0.68513,-0.84251 -2.21479,-1.60323 -3.39926,-1.69049 -1.18447,-0.0873 -2.65054,-0.79141 -3.25794,-1.56478 -0.6074,-0.77337 -1.77773,-1.54335 -2.60074,-1.71108 -0.82301,-0.16773 -1.94638,-0.88738 -2.49638,-1.59924 -1.00503,-1.30077 -1.65211,-1.5958 -3.5,-1.5958 -1.67925,0 -1.11239,-1.82956 0.75,-2.42066 0.9625,-0.30548 2.10357,-0.54474 2.53571,-0.53167 0.43214,0.0131 1.50266,-0.6932 2.37894,-1.56947 0.87627,-0.87627 2.2102,-1.35647 2.96428,-1.0671 0.75409,0.28937 1.37107,0.0351 1.37107,-0.56493 v -1.09106 l 1.68723,1.37244 1.68723,1.37245 -0.63017,-1.68308 -0.63016,-1.68308 2.92628,-0.64272 c 1.60946,-0.3535 3.08962,-0.49611 3.28924,-0.31692 0.19963,0.17919 0.99462,-0.1896 1.76665,-0.81954 2.25652,-1.84119 14.75226,-5.35001 16.5694,-4.6527 l 1.66239,0.63791 -0.67278,-1.08856 -0.67277,-1.08857 3.25873,-0.77492 c 1.7923,-0.4262 3.55873,-0.80032 3.92539,-0.83137 0.36667,-0.031 0.97316,-0.36295 1.34777,-0.73755 0.3746,-0.37461 1.4246,-0.41541 2.33333,-0.0907 0.90873,0.32473 1.30052,0.20452 0.87066,-0.26715 -0.42987,-0.47167 2.89732,-2.15274 7.39377,-3.73572 l 8.17535,-2.87815 0.95056,1.32639 0.95056,1.3264 -0.60567,-1.86134 -0.60568,-1.86135 1.51134,0.57996 c 0.83124,0.31898 1.51135,0.17898 1.51135,-0.31111 0,-1.10429 5.13034,-2.84414 10.67043,-3.61866 4.30955,-0.60248 8.84843,0.92395 7.79856,2.62267 -0.32287,0.5224 0.002,1.00173 0.72199,1.06518 0.71996,0.0634 1.75902,0.18664 2.30902,0.27378 4.12534,0.65358 24.11943,12.32476 23.0116,13.43259 -1.18796,1.18796 -9.84033,4.09314 -10.66764,3.58184 -0.46418,-0.28688 -0.84396,0.007 -0.84396,0.65405 0,0.68359 -0.83767,0.95659 -2.00138,0.65228 -1.10076,-0.28786 -1.79927,-0.19635 -1.55224,0.20335 0.65528,1.06026 -13.23907,5.33292 -14.60233,4.49038 -0.64948,-0.40141 -0.88363,-0.27667 -0.53612,0.28561 0.33933,0.54904 -0.94179,1.47665 -2.84693,2.06135 l -3.46389,1.0631 0.66549,-1.07678 0.66549,-1.07678 -1.74584,0.66994 c -0.96021,0.36846 -1.96058,0.66994 -2.22306,0.66994 -0.26248,0 -0.22174,0.41338 0.0905,0.91862 0.5953,0.9632 -4.97268,2.64362 -7.30006,2.20317 l -1.35035,-0.25556 0.72558,1.17402 0.72558,1.17401 -2.12523,-0.67452 -2.12522,-0.67452 v 1.1264 c 0,0.61953 -0.47836,0.83077 -1.06302,0.46943 -0.58466,-0.36134 -1.84612,0.0517 -2.80324,0.91791 -0.95713,0.86619 -2.84128,1.69777 -4.18699,1.84796 -1.34572,0.15019 -2.67342,0.57029 -2.95045,0.93356 -0.88326,1.15821 -11.27316,4.78644 -12.15171,4.24347 -0.46453,-0.28709 -0.84459,-0.0151 -0.84459,0.60442 v 1.1264 l -2,-0.63477 c -1.14732,-0.36415 -2,-0.1797 -2,0.43261 0,1.11924 -4.42973,1.32567 -7,0.32621 z m 167,-29.94753 c 0,-1.05121 -0.5625,-2.48344 -1.25,-3.18272 -0.6875,-0.69929 -0.8,-1.16785 -0.25,-1.04124 0.55,0.1266 1.675,-0.0596 2.5,-0.41383 7.76703,-3.33469 23.70162,-8.61824 24.76313,-8.2109 0.73741,0.28297 1.12369,0.16329 0.85841,-0.26595 -0.4209,-0.68102 12.8597,-5.95914 16.52703,-6.56835 0.74329,-0.12347 2.30003,-0.74698 3.45943,-1.38559 l 2.10801,-1.1611 -0.26995,2.45919 -0.26995,2.4592 h 1.91194 c 3.60382,0 1.89542,1.50067 -3.84529,3.37773 -3.15852,1.03276 -5.98319,2.25224 -6.27704,2.70997 -0.29386,0.45773 -2.39294,0.96275 -4.66464,1.12227 -2.2717,0.15951 -3.95059,0.47072 -3.73086,0.69156 0.92279,0.92747 -5.38949,3.26963 -9.22957,3.42462 -2.28764,0.0923 -3.71241,0.44409 -3.16615,0.78169 1.48521,0.91792 -1.64305,1.8439 -4.07805,1.20713 -1.18251,-0.30923 -2.09645,-0.0726 -2.09645,0.54271 0,1.45198 -4.67739,3.80357 -9.28456,4.66788 l -3.71544,0.69702 z M 446.22459,429.3912 c -1.31462,-1.31461 -0.75565,-2.39123 1.2415,-2.39123 1.08134,0 3.44384,-0.64161 5.25,-1.4258 3.91987,-1.70191 36.63556,-11.78753 38.78393,-11.95634 0.825,-0.0648 1.725,-0.37113 2,-0.68068 0.275,-0.30955 14.45,-4.91428 31.5,-10.23272 17.05,-5.31845 35.05,-10.97709 40,-12.57476 4.95,-1.59766 19.41817,-6.10544 32.15151,-10.01727 l 23.1515,-7.11243 4.8485,0.0164 4.84849,0.0165 3.89781,2.23355 c 2.1438,1.22845 4.27671,3.27284 4.7398,4.54309 l 0.84199,2.30953 -5.2398,2.28822 c -7.20169,3.14498 -44.35289,15.61793 -108.86264,36.54899 l -2.62283,0.85101 0.0304,-1.15365 c 0.0167,-0.6345 -0.0405,-2.45577 -0.12717,-4.04726 l -0.15753,-2.89361 -10.35018,0.52824 c -5.69259,0.29054 -11.33698,1.05637 -12.54309,1.70186 -1.2061,0.64549 -5.21102,1.80996 -8.89982,2.58771 -10.93791,2.30617 -19.66565,4.76009 -20.30533,5.7091 -0.32913,0.48829 -3.70413,1.3407 -7.5,1.89425 -3.79587,0.55354 -8.25158,1.46346 -9.90158,2.02204 -5.51262,1.8662 -6.04706,1.96364 -6.77543,1.23526 z m -89.68086,-6.60796 c -5.29745,-2.71427 -7.91422,-6.80764 -7.85231,-12.28327 l 0.0452,-4 0.68697,3 c 0.51796,2.26197 1.13405,-53.17768 1.06682,-96 -0.003,-1.65 -0.22982,-14.925 -0.50495,-29.5 -0.27513,-14.575 -0.20394,-27.175 0.15819,-28 0.36214,-0.825 0.79083,-2.175 0.95265,-3 0.16182,-0.825 1.83645,-2.91596 3.7214,-4.64656 l 3.42718,-3.14656 9.87756,-3.05682 C 373.55509,240.46877 384.75,237.0846 393,234.62965 c 8.25,-2.45495 18.6,-5.60227 23,-6.99405 16.99191,-5.37475 53.93312,-15.65645 54.9409,-15.29147 0.5825,0.21096 -2.5409,1.51059 -6.9409,2.88806 -4.4,1.37747 -7.92458,2.9025 -7.8324,3.38895 0.18778,0.99089 11.80038,33.31627 15.58345,43.37883 1.34404,3.575 3.15914,8.525 4.03356,11 0.87442,2.475 3.24003,8.775 5.25692,14 2.01689,5.225 7.61498,20.975 12.44022,35 15.14276,44.0139 19.50342,54.9644 21.92876,55.06768 l 1.58949,0.0677 -2,0.88471 c -1.1,0.48659 -12.575,4.0952 -25.5,8.01913 -12.925,3.92394 -26.875,8.19579 -31,9.49301 -14.99801,4.71655 -61.72726,19.36422 -70.5,22.09881 -4.95,1.54299 -9.81365,2.7079 -10.8081,2.5887 l -1.80809,-0.21673 0.70725,1.14435 0.70724,1.14434 -2.73294,-0.68592 -2.73294,-0.68593 0.57504,0.93043 c 0.31627,0.51174 -1.10853,1.2355 -3.16621,1.60836 -2.05769,0.37286 -4.64125,0.88717 -5.74125,1.14292 -1.1,0.25575 -4.00533,-0.56248 -6.45629,-1.81827 z"
         id="path88" /><path
         style="fill:#333333;fill-opacity:1"
         d="m 505.00002,573.68109 c -3.3,-1.80039 -18.375,-10.41077 -33.5,-19.13417 -15.125,-8.7234 -32.225,-18.33475 -38,-21.35854 -5.775,-3.0238 -11.625,-6.23444 -13,-7.13474 -1.375,-0.90031 -4.84623,-2.7 -7.71384,-3.9993 -2.86762,-1.29931 -4.94074,-2.80427 -4.60695,-3.34436 0.54145,-0.87607 0.72392,-1.864 1.19316,-6.46001 0.0702,-0.6875 1.11763,-1.25 2.32763,-1.25 h 2.2 l -1.01826,-1.01826 c -1.17818,-1.17818 -13.30917,-8.65697 -39.18831,-24.15972 -17.87035,-10.70514 -27.48406,-15.79253 -29.88056,-15.81226 l -1.18713,-0.01 0.57867,3.75 c 0.74247,4.8115 0.88669,4.93002 3.31974,2.72814 l 2.03641,-1.84293 2.68878,0.9456 c 5.31294,1.86846 9.37497,11.89487 6.1326,15.13724 l -1.11806,1.11806 -3.35889,-1.66806 -3.35889,-1.66805 -1.96639,-4.11855 c -1.08151,-2.26521 -2.86102,-4.35251 -3.95447,-4.63845 l -1.98808,-0.5199 -1.06002,-3.9366 -1.06002,-3.93661 -5.20637,-2.42495 c -2.86351,-1.33372 -5.54817,-2.31884 -5.96592,-2.18916 -0.41775,0.12968 -1.04059,-1.44532 -1.38408,-3.5 -0.97593,-5.83767 -1.04089,-5.90736 -2.649,-2.8422 l -1.5181,2.89357 -3.39683,-4.89357 -3.39682,-4.89358 -0.27627,-106.96498 -0.27627,-106.96497 1.1015,-5.30593 c 0.64004,-3.08307 2.43656,-7.07767 4.28825,-9.53503 l 3.18673,-4.22909 12.98803,-4.17706 c 7.14341,-2.29739 35.48803,-11.01224 62.98803,-19.36635 27.5,-8.3541 58.775,-17.85897 69.5,-21.12193 10.725,-3.26297 33.9,-10.22087 51.5,-15.46201 17.6,-5.24113 39.97528,-12.02201 49.72285,-15.06861 l 17.72285,-5.53927 4.3395,0.65074 4.3395,0.65075 3.56373,2.93753 c 1.96005,1.61564 4.63199,5.08823 5.93765,7.71687 l 2.37392,4.77934 0.5,100.49535 0.5,100.49535 7.13557,-0.32983 7.13557,-0.32982 16.86443,8.70539 c 9.27543,4.78797 20.46443,10.61925 24.86443,12.95841 12.70558,6.75465 42.90636,22.66759 56,29.5067 6.6,3.44733 15.15,7.94828 19,10.0021 3.85,2.05383 14.65,7.67094 24,12.48248 9.35,4.81154 21.43867,11.03945 26.86371,13.8398 5.42505,2.80035 10.53841,6.12125 11.36302,7.37977 l 1.4993,2.28822 -0.3939,6.97107 -0.3939,6.97107 -2.07365,2.78197 c -2.85039,3.82403 -6.96267,6.04773 -18.22777,9.8566 -5.30025,1.79207 -29.88681,10.5359 -54.63681,19.43072 -24.75,8.89482 -51.075,18.35394 -58.5,21.02027 -32.9212,11.82204 -47.67661,17.18624 -64.5,23.44839 -33.4158,12.43832 -49.92793,18.7041 -67.54027,25.62922 l -17.54027,6.89677 -4.95973,-0.0227 -4.95973,-0.0227 z m 39.15118,-22.6994 c 12.01685,-4.47475 27.47382,-10.15834 34.34882,-12.6302 6.875,-2.47186 16.23691,-5.85058 20.80425,-7.50827 4.56734,-1.65769 9.59169,-3.38322 11.16522,-3.8345 l 2.86096,-0.82051 0.6072,2.4193 0.60721,2.4193 2.72758,-0.65389 c 5.43784,-1.30365 13.22758,-4.53936 13.22758,-5.49449 v -0.97784 l 1.61459,0.90357 1.6146,0.90357 4.1354,-1.99891 c 4.09591,-1.97982 15.02044,-6.11861 25.63541,-9.71205 22.59741,-7.64982 37.50366,-13.10852 38.41963,-14.06936 l 1.08037,-1.13328 -4.5,0.72116 c -2.475,0.39665 -5.625,1.28595 -7,1.97624 -1.375,0.69029 -3.625,1.59688 -5,2.01465 l -2.5,0.75959 1.75,-1.96164 c 0.9625,-1.07891 1.75,-2.4474 1.75,-3.0411 0,-0.5937 2.5875,-1.97737 5.75,-3.07481 3.1625,-1.09745 10.925,-3.87475 17.25,-6.17179 25.0005,-9.07937 35.92996,-12.78886 35.84844,-12.16708 -0.0469,0.35784 -0.032,1.7132 0.0331,3.01191 l 0.11843,2.36129 3.71544,-0.69702 c 4.60717,-0.86431 9.28456,-3.2159 9.28456,-4.66788 0,-0.61535 0.91394,-0.85194 2.09645,-0.54271 2.435,0.63677 5.56326,-0.28921 4.07805,-1.20713 -0.54626,-0.3376 0.87851,-0.68936 3.16615,-0.78169 3.84008,-0.15499 10.15236,-2.49715 9.22957,-3.42462 -0.21973,-0.22084 1.45916,-0.53205 3.73086,-0.69156 2.2717,-0.15952 4.37078,-0.66454 4.66464,-1.12227 0.29385,-0.45773 3.11852,-1.67721 6.27704,-2.70997 5.66372,-1.85189 7.45713,-3.37773 3.97004,-3.37773 h -1.7872 l -0.15877,-2.10775 -0.15877,-2.10775 1.99978,-0.52296 1.99978,-0.52295 -0.30381,-2.46173 -0.30381,-2.46174 -31,-15.71335 c -17.05,-8.64235 -34.825,-17.7604 -39.5,-20.26233 -4.675,-2.50193 -21.1,-11.20116 -36.5,-19.33162 -15.4,-8.13046 -34.3,-18.17586 -42,-22.32313 -19.19408,-10.33804 -21.0173,-11.18469 -24.08568,-11.18469 -3.32586,0 -9.63913,1.69513 -14.91432,4.00454 -2.2,0.96313 -11.425,4.0867 -20.5,6.94127 -9.075,2.85457 -27.525,8.72512 -41,13.04568 -13.475,4.32055 -31.25,9.95285 -39.5,12.51621 -8.25,2.56336 -21.975,6.83397 -30.5,9.49024 -8.525,2.65627 -23.825,7.39135 -34,10.5224 -10.175,3.13105 -27.275,8.40307 -38,11.7156 -10.725,3.31253 -26.925,8.23979 -36,10.94947 -17.72989,5.29391 -23.71522,7.73743 -26.50586,10.82106 l -1.77017,1.95601 1.32112,1.59185 c 0.72661,0.87551 3.11099,2.50497 5.29862,3.62101 7.0904,3.61726 47.40381,27.68385 78.15629,46.6583 29.65876,18.29963 76.94413,46.16636 78.33692,46.16636 0.39573,0 2.28182,1.13195 4.19129,2.51545 l 3.47179,2.51546 4.65118,-0.45664 c 2.55814,-0.25115 14.48314,-4.1178 26.5,-8.59255 z M 380.21966,463.80836 c -3.1792,-1.54167 -6.03984,-3.47925 -6.35699,-4.30572 -0.31715,-0.82647 -1.20349,-1.50267 -1.96964,-1.50267 -1.55811,0 -1.87912,-1.58154 -0.49468,-2.43717 0.49408,-0.30536 2.3171,0.77013 4.05114,2.38997 1.75444,1.63889 3.79289,2.69955 4.59593,2.3914 1.65928,-0.63673 0.96772,-2.3442 -0.94943,-2.3442 -0.7073,0 -2.03074,-0.82294 -2.94099,-1.82875 -1.84261,-2.03606 -2.24195,-6.17125 -0.59597,-6.17125 0.58246,0 0.82354,0.38101 0.53573,0.8467 -0.28781,0.46569 0.9081,2.31077 2.65759,4.10018 3.7959,3.88255 5.02497,2.34334 1.31966,-1.65266 -3.66053,-3.94772 -2.66924,-6.53433 1.07086,-2.79422 0.825,0.825 2.98827,1.5 4.80725,1.5 h 3.30725 l 1.25593,-3.03207 c 0.69075,-1.66763 0.98294,-3.30504 0.6493,-3.63869 -0.33365,-0.33364 -1.06246,0.59232 -1.6196,2.05769 -1.02897,2.70641 -3.08583,4.09878 -5.07525,3.43564 l -1.09824,-0.36608 1.81525,-2.07127 c 2.38824,-2.72507 5.62491,-4.38522 8.54951,-4.38522 1.30116,0 2.79325,-0.41124 3.31575,-0.91386 1.34695,-1.29572 19.58968,-7.11785 20.51355,-6.54686 0.42109,0.26025 0.91656,0.10607 1.10104,-0.34262 0.18447,-0.44869 6.0764,-2.47812 13.09318,-4.50985 l 12.75778,-3.69405 1.80401,1.12662 1.80401,1.12663 3.13856,-1.62301 c 1.7262,-0.89265 4.62339,-1.63401 6.43821,-1.64745 4.07587,-0.0302 12.06541,-1.8159 12.77505,-2.85529 0.57602,-0.84369 9.77151,-3.38427 20.23152,-5.58968 3.6888,-0.77775 7.69372,-1.94222 8.89982,-2.58771 1.20611,-0.64549 6.79039,-1.40825 12.40952,-1.69504 l 10.21659,-0.52143 0.52632,3.3868 c 0.28948,1.86274 0.23709,3.6701 -0.11642,4.01636 -0.9444,0.92504 -37.05796,12.18071 -39.64274,12.35563 -0.55,0.0372 -1.4753,0.36593 -2.05621,0.73048 -0.58091,0.36455 -9.13091,3.18377 -19,6.26495 -9.86909,3.08117 -22.14761,6.9658 -27.2856,8.63251 -5.138,1.66671 -9.99887,2.77825 -10.80194,2.47008 -0.80307,-0.30817 -1.22865,-0.18576 -0.94573,0.27202 0.28293,0.45778 -6.00301,2.96821 -13.96874,5.57873 -7.96573,2.61053 -16.38634,5.7434 -18.71247,6.96194 l -4.22931,2.21553 z m -55.38404,-24.55797 -0.1644,-17.75042 0.89182,9.5 c 0.49051,5.225 1.07478,10.175 1.2984,11 0.22361,0.825 0.45877,-32.7497 0.52257,-74.61043 0.0638,-41.86074 0.39934,-78.31074 0.74563,-81 l 0.62963,-4.88957 -1.32425,1.24462 -1.32425,1.24462 -0.63124,27.75538 -0.63124,27.75538 -0.17414,-32.37245 -0.17413,-32.37244 1.5,1.24489 1.5,1.24489 0.0318,-18.87245 0.0318,-18.87244 1.49702,-1.98055 1.49701,-1.98054 -0.59047,-2.68843 -0.59048,-2.68844 2.06166,-4.04118 c 2.58759,-5.07211 2.57364,-5.4109 -0.18834,-4.57332 -5.92388,1.79644 -10.16823,8.81972 -11.83948,19.59119 l -1.1333,7.30432 0.36766,101.70459 0.36766,101.70458 2.41804,2.57389 c 3.60475,3.83708 3.58204,3.93827 3.40502,-15.17569 z m 17.04636,9.87418 c 1.71492,-1.03147 8.74304,-3.69452 15.61804,-5.91789 18.84691,-6.09508 41.10362,-13.07667 48.18732,-15.11562 7.39078,-2.12734 47.52356,-14.48907 73.31268,-22.58182 69.26054,-21.73432 92.5925,-29.12909 104,-32.96148 7.15,-2.40207 14.2375,-4.64156 15.75,-4.97665 l 2.75,-0.60925 0.0127,-30.23095 c 0.007,-16.62702 0.001,-63.06225 -0.0126,-103.18941 l -0.0253,-72.95847 -2.62791,-2.74294 c -1.44535,-1.50862 -3.89645,-3.02157 -5.4469,-3.3621 l -2.81899,-0.61916 -15.29047,5.00464 c -16.40687,5.37005 -58.01897,17.8709 -95.29046,28.62656 -12.65,3.65049 -28.85,8.61368 -36,11.02931 -11.16318,3.77147 -77.57208,24.08518 -94.76162,28.98648 -3.16889,0.90355 -7.05885,2.73437 -8.64436,4.06848 -1.5855,1.33412 -3.60528,2.42567 -4.48838,2.42567 h -1.60564 v 106.27749 106.27749 l 1.5567,2.22251 c 1.88456,2.69059 1.92499,2.693 5.82526,0.34711 z"
         id="path87" /></g></g></svg>
